<?xml version="1.0" encoding="UTF-8"?>
<svg id="katman_1" xmlns="http://www.w3.org/2000/svg" version="1.1" viewBox="0 0 946 484">
  <!-- Generator: Adobe Illustrator 29.6.0, SVG Export Plug-In . SVG Version: 2.1.1 Build 207)  -->
  <defs>
    <style>
      .st0 {
        fill: #bfcfe2;
      }

      .st1, .st2, .st3 {
        stroke: #fff;
      }

      .st1, .st2, .st3, .st4, .st5, .st6, .st7 {
        fill: none;
        stroke-linecap: round;
        stroke-linejoin: round;
      }

      .st1, .st4, .st5, .st6, .st7 {
        stroke-width: 4px;
      }

      .st8 {
        fill: #5f5aff;
      }

      .st9 {
        fill: #c9c9c9;
      }

      .st10 {
        fill: #fff;
      }

      .st11 {
        fill: #cecece;
      }

      .st12 {
        fill: #ffa364;
      }

      .st13 {
        fill: #2d425e;
      }

      .st14 {
        opacity: .3;
      }

      .st2, .st3 {
        stroke-width: 2px;
      }

      .st15 {
        fill: #ff3e3e;
      }

      .st16 {
        fill: #2aa1ff;
      }

      .st17, .st3, .st18 {
        isolation: isolate;
      }

      .st19 {
        fill: #ff5252;
      }

      .st3, .st20 {
        mix-blend-mode: screen;
        opacity: .3;
      }

      .st21 {
        fill: #f6f9fd;
      }

      .st4 {
        stroke: #7bffa0;
      }

      .st18 {
        mix-blend-mode: overlay;
      }

      .st18, .st22 {
        fill: #6567c3;
      }

      .st5 {
        stroke: #ff5757;
      }

      .st23 {
        fill: #d0ddf0;
      }

      .st24 {
        fill: #1f3969;
      }

      .st6 {
        stroke: #9169ff;
      }

      .st25 {
        fill: #50b56f;
      }

      .st7 {
        stroke: #ffc47d;
      }
    </style>
  </defs>
  <g class="st17">
    <g id="Layer_1">
      <path class="st9" d="M17,452.3h910.1c7.3,0,13.2,5.9,13.2,13.2h0c0,7.3-5.9,13.2-13.2,13.2H17c-7.3,0-13.2-5.9-13.2-13.2h0c0-7.3,5.9-13.2,13.2-13.2Z"/>
      <path class="st11" d="M188.2,342.2c-14.1-.1-25.4-11.6-25.2-25.6.1-13.9,11.3-25.1,25.2-25.2h143.8v50.9h-143.8Z"/>
      <path class="st10" d="M188.2,282.5h152.1v68.5h-152.1c-18.9,0-34.2-15.3-34.2-34.2h0c0-18.9,15.3-34.2,34.2-34.2h0Z"/>
      <path class="st24" d="M332,311.8h-153.1c-1.6,0-2.9-1.3-2.9-2.9s1.3-2.9,2.9-2.9h153.1c1.6,0,2.9,1.3,2.9,2.9s-1.3,2.9-2.9,2.9Z"/>
      <path class="st24" d="M332,327.4h-153.1c-1.6,0-2.9-1.3-2.9-2.9s1.3-2.9,2.9-2.9h153.1c1.6,0,2.9,1.3,2.9,2.9s-1.3,2.9-2.9,2.9Z"/>
      <path class="st24" d="M332,345.1h-143.8c-15.7-.1-28.3-12.9-28.2-28.6.1-15.5,12.7-28.1,28.2-28.2h143.8c1.6,0,2.9,1.3,2.9,2.9v50.9c0,1.6-1.3,2.9-2.9,2.9ZM188.2,294.3c-12.4.1-22.4,10.3-22.3,22.7,0,12.3,10,22.2,22.3,22.3h140.9v-45h-140.9Z"/>
      <path class="st15" d="M188.2,342.2c-14.1-.1-25.4-11.6-25.2-25.6.1-13.9,11.3-25.1,25.2-25.2h146.3l5.9-8.8h-152.1c-18.9,0-34.2,15.3-34.2,34.2h0c0,18.9,15.3,34.2,34.2,34.2h152.1l-5.9-8.8h-146.3Z"/>
      <path class="st24" d="M340.4,354h-152.1c-20.5-.1-37.1-16.9-36.9-37.4.1-20.4,16.6-36.8,36.9-36.9h152.1c1.6,0,2.9,1.3,2.9,2.9,0,.6-.2,1.1-.5,1.6l-5.9,8.8c-.5.8-1.5,1.3-2.4,1.3h-146.3c-12.4.1-22.4,10.3-22.3,22.7,0,12.3,10,22.2,22.3,22.3h146.3c1,0,1.9.5,2.4,1.3l5.9,8.8c.9,1.3.5,3.2-.8,4.1-.5.3-1,.5-1.6.5ZM188.2,285.5c-17.3.1-31.2,14.2-31.1,31.5.1,17.1,14,31,31.1,31.1h146.7l-2-2.9h-144.7c-15.7-.1-28.3-12.9-28.2-28.6.1-15.5,12.7-28.1,28.2-28.2h144.7l2-2.9h-146.7Z"/>
      <g class="st14">
        <rect class="st24" x="280.7" y="282.5" width="27" height="68.5"/>
        <path class="st24" d="M307.7,354h-27c-1.6,0-2.9-1.3-2.9-2.9v-68.5c0-1.6,1.3-2.9,2.9-2.9h27c1.6,0,2.9,1.3,2.9,2.9v68.5c0,1.6-1.3,2.9-2.9,2.9h0ZM283.6,348.1h21.1v-62.6h-21.1v62.6Z"/>
      </g>
      <rect class="st25" x="36.2" y="351" width="298.4" height="56.6" rx="6.8" ry="6.8"/>
      <path class="st24" d="M324.7,410.5H46.1c-7.1,0-12.8-5.8-12.9-12.9v-36.7c0-7.1,5.8-12.8,12.9-12.9h278.6c7.1,0,12.8,5.8,12.9,12.9v36.7c0,7.1-5.8,12.8-12.9,12.9ZM46.1,354c-3.9,0-7,3.1-7,7v36.7c0,3.9,3.1,7,7,7h278.6c3.9,0,7-3.1,7-7v-36.7c0-3.9-3.1-7-7-7H46.1Z"/>
      <g class="st14">
        <path class="st24" d="M324.7,351h-44v22c0,13.8,11.2,25,25,25h28.9c0-.1,0-.3,0-.4v-36.7c0-5.5-4.4-9.9-9.9-9.9h0Z"/>
        <path class="st24" d="M334.6,401h-28.9c-15.4,0-27.9-12.5-28-28v-22c0-1.6,1.3-2.9,2.9-2.9h44c7.1,0,12.8,5.8,12.9,12.9v36.7c0,.1,0,.3,0,.4,0,1.6-1.4,2.8-2.9,2.9ZM283.6,354v19.1c0,12.2,9.9,22.1,22.1,22.1h26v-34.2c0-3.9-3.1-7-7-7h-41.1Z"/>
      </g>
      <path class="st11" d="M403.1,418.9H80.5c4,10.8,4,22.6,0,33.3h322.7c-4-10.8-4-22.6,0-33.3Z"/>
      <rect class="st8" x="71.7" y="410.1" width="340.2" height="8.9"/>
      <path class="st24" d="M411.9,421.9H71.7c-1.6,0-2.9-1.3-2.9-2.9v-8.9c0-1.6,1.3-2.9,2.9-2.9h340.2c1.6,0,2.9,1.3,2.9,2.9v8.9c0,1.6-1.3,2.9-2.9,2.9ZM74.7,416h334.3v-3H74.7v3Z"/>
      <rect class="st21" x="71.7" y="452.3" width="340.2" height="8.9"/>
      <rect class="st8" x="71.7" y="452.3" width="340.2" height="8.9"/>
      <path class="st24" d="M411.9,464.1H71.7c-1.6,0-2.9-1.3-2.9-2.9v-8.9c0-1.6,1.3-2.9,2.9-2.9h340.2c1.6,0,2.9,1.3,2.9,2.9v8.9c0,1.6-1.3,2.9-2.9,2.9h0ZM74.7,458.2h334.3v-3H74.7v3Z"/>
      <path class="st0" d="M581,429.8l-4.4-49.4h-72.5l-4.4,49.4c-1,11.5-7.9,22.4-18.7,31.2h0c0,.1,118.8.1,118.8.1h0c-10.8-8.9-17.7-19.9-18.8-31.3Z"/>
      <g class="st14">
        <polygon class="st24" points="504.1 380.4 501.5 410.1 579.2 410.1 576.6 380.4 504.1 380.4"/>
        <path class="st24" d="M579.2,413h-77.8c-1.6,0-2.9-1.3-2.9-2.9,0,0,0-.2,0-.3l2.7-29.6c.1-1.5,1.4-2.7,2.9-2.7h72.5c1.5,0,2.8,1.2,2.9,2.7l2.7,29.6c.1,1.6-1,3-2.7,3.2,0,0-.2,0-.3,0h0ZM504.7,407.1h71.4l-2.1-23.8h-67.1l-2.1,23.8Z"/>
      </g>
      <path class="st24" d="M599.8,464.1h-118.8c-1.6,0-2.9-1.3-2.9-2.9,0-.1,0-.2,0-.4,0-.8.5-1.5,1.1-2,10.5-8.5,16.7-18.8,17.7-29.2l4.4-49.4c.1-1.5,1.4-2.7,2.9-2.7h72.5c1.5,0,2.8,1.2,2.9,2.7l4.4,49.4h0c.9,10.3,7.2,20.7,17.7,29.2.6.5,1,1.2,1.1,1.9.1.8-.2,1.7-.7,2.3-.5.6-1.3,1-2.2,1ZM488.4,458.2h103.8c-8.3-8.5-13.3-18.2-14.2-28.1l-4.2-46.7h-67.1l-4.2,46.7c-.9,9.9-5.9,19.7-14.2,28.1Z"/>
      <rect class="st10" x="290.9" y="50.4" width="498.8" height="337.4" rx="12" ry="12"/>
      <rect class="st0" x="290.9" y="50.4" width="498.8" height="337.4" rx="12" ry="12"/>
      <path class="st24" d="M772.1,390.7h-463.6c-11.3,0-20.5-9.2-20.5-20.5V68c0-11.3,9.2-20.5,20.5-20.5h463.6c11.3,0,20.5,9.2,20.5,20.5v302.2c0,11.3-9.2,20.5-20.5,20.5ZM308.6,53.3c-8.1,0-14.7,6.6-14.7,14.7v302.2c0,8.1,6.6,14.7,14.7,14.7h463.6c8.1,0,14.7-6.6,14.7-14.7V68c0-8.1-6.6-14.7-14.7-14.7h-463.6Z"/>
      <rect class="st21" x="315.9" y="75.3" width="448.9" height="256.1"/>
      <g class="st14">
        <path class="st24" d="M332,50.4v203.3c0,6.5,5.3,11.7,11.7,11.7h277.4c6.5,0,11.7-5.3,11.7-11.7V50.4h-300.9Z"/>
        <path class="st24" d="M621.2,268.3h-277.4c-8.1,0-14.7-6.6-14.7-14.7V50.4c0-1.6,1.3-2.9,2.9-2.9h300.9c1.6,0,2.9,1.3,2.9,2.9v203.3c0,8.1-6.6,14.7-14.7,14.7ZM335,53.3v200.4c0,4.9,3.9,8.8,8.8,8.8h277.4c4.9,0,8.8-3.9,8.8-8.8V53.3h-295Z"/>
      </g>
      <path class="st24" d="M764.8,334.4h-448.9c-1.6,0-2.9-1.3-2.9-2.9V75.3c0-1.6,1.3-2.9,2.9-2.9h448.9c1.6,0,2.9,1.3,2.9,2.9v256.1c0,1.6-1.3,2.9-2.9,2.9ZM318.8,328.5h443.1V78.2h-443.1v250.3Z"/>
      <path class="st24" d="M560.1,362.4h-39.5c-1.6,0-2.9-1.3-2.9-2.9s1.3-2.9,2.9-2.9h39.5c1.6,0,2.9,1.3,2.9,2.9s-1.3,2.9-2.9,2.9Z"/>
      <rect class="st13" x="345.2" y="8.3" width="300.9" height="241" rx="8" ry="8"/>
      <path class="st24" d="M646.1,39.7h-300.9c-1.6,0-2.9-1.3-2.9-2.9v-16.8c0-8.1,6.6-14.7,14.7-14.7h277.4c8.1,0,14.7,6.6,14.7,14.7v16.8c0,1.6-1.3,2.9-2.9,2.9ZM348.2,33.9h295v-13.9c0-4.9-3.9-8.8-8.8-8.8h-277.4c-4.9,0-8.8,3.9-8.8,8.8v13.9Z"/>
      <path class="st23" d="M357,8.3h277.4c6.5,0,11.7,5.3,11.7,11.7v22.4h-300.9v-22.4c0-6.5,5.3-11.7,11.7-11.7Z"/>
      <path class="st24" d="M646.1,45.3h-300.9c-1.6,0-2.9-1.3-2.9-2.9v-22.4c0-8.1,6.6-14.7,14.7-14.7h277.4c8.1,0,14.7,6.6,14.7,14.7v22.4c0,1.6-1.3,2.9-2.9,2.9ZM348.2,39.5h295v-19.5c0-4.9-3.9-8.8-8.8-8.8h-277.4c-4.9,0-8.8,3.9-8.8,8.8v19.5Z"/>
      <path class="st24" d="M646.1,45.3h-300.9c-1.6,0-2.9-1.3-2.9-2.9v-22.4c0-8.1,6.6-14.7,14.7-14.7h277.4c8.1,0,14.7,6.6,14.7,14.7v22.4c0,1.6-1.3,2.9-2.9,2.9ZM348.2,39.5h295v-19.5c0-4.9-3.9-8.8-8.8-8.8h-277.4c-4.9,0-8.8,3.9-8.8,8.8v19.5Z"/>
      <path class="st24" d="M634.4,252.2h-277.4c-8.1,0-14.7-6.6-14.7-14.7V20c0-8.1,6.6-14.7,14.7-14.7h277.4c8.1,0,14.7,6.6,14.7,14.7v217.5c0,8.1-6.6,14.7-14.7,14.7ZM357,11.2c-4.9,0-8.8,3.9-8.8,8.8v217.5c0,4.9,3.9,8.8,8.8,8.8h277.4c4.9,0,8.8-3.9,8.8-8.8V20c0-4.9-3.9-8.8-8.8-8.8h-277.4Z"/>
      <g class="st14">
        <rect class="st24" x="597.2" y="97.4" width="193.7" height="203.8" rx="8" ry="8"/>
        <path class="st24" d="M779.1,304.2h-170.2c-8.1,0-14.7-6.6-14.7-14.7V109.1c0-8.1,6.6-14.7,14.7-14.7h170.2c8.1,0,14.7,6.6,14.7,14.7v180.4c0,8.1-6.6,14.7-14.7,14.7ZM608.9,100.3c-4.9,0-8.8,3.9-8.8,8.8v180.4c0,4.9,3.9,8.8,8.8,8.8h170.2c4.9,0,8.8-3.9,8.8-8.8V109.1c0-4.9-3.9-8.8-8.8-8.8h-170.2Z"/>
      </g>
      <rect class="st16" x="608.9" y="87.1" width="193.7" height="203.8" rx="8" ry="8"/>
      <path class="st24" d="M790.9,293.9h-170.2c-8.1,0-14.7-6.6-14.7-14.7V98.8c0-8.1,6.6-14.7,14.7-14.7h170.2c8.1,0,14.7,6.6,14.7,14.7v180.4c0,8.1-6.6,14.7-14.7,14.7ZM620.7,90c-4.9,0-8.8,3.9-8.8,8.8v180.4c0,4.9,3.9,8.8,8.8,8.8h170.2c4.9,0,8.8-3.9,8.8-8.8V98.8c0-4.9-3.9-8.8-8.8-8.8h-170.2Z"/>
      <rect class="st3" x="638.3" y="116.4" width="134.8" height="26.6" rx="5.2" ry="5.2"/>
      <g class="st20">
        <rect class="st2" x="638.4" y="159.4" width="82.1" height="26.6" rx="5.2" ry="5.2"/>
        <rect class="st2" x="732.2" y="159.4" width="41.1" height="26.6" rx="5.2" ry="5.2"/>
      </g>
      <line class="st2" x1="638.3" y1="230.6" x2="773.1" y2="230.6"/>
      <line class="st2" x1="638.3" y1="246.5" x2="773.1" y2="246.5"/>
      <line class="st2" x1="638.3" y1="262.3" x2="720.4" y2="262.3"/>
      <circle class="st24" cx="374.7" cy="25.3" r="5.9"/>
      <circle class="st24" cx="395.1" cy="25.3" r="5.9"/>
      <circle class="st24" cx="415.4" cy="25.3" r="5.9"/>
      <line class="st1" x1="518.1" y1="69.5" x2="537.1" y2="69.5"/>
      <line class="st4" x1="421.3" y1="69.5" x2="504" y2="69.5"/>
      <line class="st6" x1="380.6" y1="69.5" x2="409.6" y2="69.5"/>
      <line class="st6" x1="418.4" y1="214.1" x2="481.5" y2="214.1"/>
      <line class="st4" x1="380.6" y1="214.1" x2="400.9" y2="214.1"/>
      <line class="st1" x1="504" y1="87.5" x2="515.8" y2="87.5"/>
      <line class="st6" x1="449.9" y1="87.5" x2="489.9" y2="87.5"/>
      <line class="st7" x1="395.1" y1="87.5" x2="435.8" y2="87.5"/>
      <line class="st1" x1="458.1" y1="105.6" x2="493" y2="105.6"/>
      <line class="st5" x1="414" y1="105.6" x2="446.9" y2="105.6"/>
      <line class="st1" x1="462.7" y1="123.7" x2="470" y2="123.7"/>
      <line class="st6" x1="433.7" y1="123.7" x2="449.9" y2="123.7"/>
      <line class="st4" x1="395.1" y1="123.7" x2="421.3" y2="123.7"/>
      <line class="st7" x1="451.4" y1="141.8" x2="498.2" y2="141.8"/>
      <line class="st5" x1="395.1" y1="141.8" x2="437.1" y2="141.8"/>
      <line class="st6" x1="505.5" y1="159.8" x2="531" y2="159.8"/>
      <line class="st5" x1="451.4" y1="159.8" x2="492.1" y2="159.8"/>
      <line class="st4" x1="414" y1="159.8" x2="437.1" y2="159.8"/>
      <line class="st1" x1="469.9" y1="177.9" x2="492.1" y2="177.9"/>
      <line class="st6" x1="414" y1="177.9" x2="454.7" y2="177.9"/>
      <line class="st1" x1="527.6" y1="196" x2="552.9" y2="196"/>
      <line class="st7" x1="449.9" y1="196" x2="513.8" y2="196"/>
      <line class="st1" x1="395.1" y1="196" x2="435.8" y2="196"/>
      <path class="st24" d="M400.2,432H84.1c-1.6,0-2.9-1.3-2.9-2.9s1.3-2.9,2.9-2.9h316.1c1.6,0,2.9,1.3,2.9,2.9s-1.3,2.9-2.9,2.9Z"/>
      <path class="st24" d="M400.2,443.8H84.1c-1.6,0-2.9-1.3-2.9-2.9s1.3-2.9,2.9-2.9h316.1c1.6,0,2.9,1.3,2.9,2.9s-1.3,2.9-2.9,2.9Z"/>
      <path class="st24" d="M403.1,455.2H80.5c-1.6,0-2.9-1.3-2.9-2.9,0-.4,0-.7.2-1.1,3.7-10.1,3.7-21.1,0-31.2-.6-1.5.1-3.2,1.7-3.8.3-.1.7-.2,1.1-.2h322.7c1.6,0,2.9,1.3,2.9,2.9,0,.4,0,.7-.2,1.1-3.7,10.1-3.7,21.1,0,31.2.6,1.5-.1,3.2-1.7,3.8-.3.1-.7.2-1.1.2ZM84.5,449.3h314.5c-2.4-9-2.4-18.5,0-27.5H84.5c2.4,9,2.4,18.5,0,27.5h0Z"/>
      <rect class="st12" x="829.1" y="299.9" width="14.4" height="106.6" transform="translate(-35.5 99.9) rotate(-6.7)"/>
      <rect class="st16" x="823.6" y="300.2" width="14.4" height="10.8" transform="translate(-30 98.9) rotate(-6.7)"/>
      <path class="st24" d="M824.2,314.8c-1.5,0-2.7-1.1-2.9-2.6l-1.3-10.8c-.2-1.6,1-3.1,2.6-3.3,0,0,0,0,0,0l14.3-1.7c1.6-.2,3.1,1,3.3,2.6,0,0,0,0,0,0l1.3,10.8c.2,1.6-1,3.1-2.6,3.3l-14.3,1.7c-.1,0-.2,0-.3,0ZM826.2,303.7l.6,4.9,8.5-1-.6-4.9-8.5,1Z"/>
      <path class="st24" d="M835.4,409.9c-1.5,0-2.7-1.1-2.9-2.6l-12.4-105.9c-.2-1.6,1-3.1,2.6-3.3,0,0,0,0,0,0l14.3-1.7c1.6-.2,3.1,1,3.3,2.6,0,0,0,0,0,0l12.4,105.9c.2,1.6-1,3.1-2.6,3.3,0,0,0,0,0,0l-14.3,1.7c-.1,0-.2,0-.3,0ZM826.2,303.7l11.7,100,8.5-1-11.7-100-8.5,1Z"/>
      <rect class="st19" x="810.4" y="366" width="106.6" height="14.4" transform="translate(399.4 1191.5) rotate(-83.8)"/>
      <path class="st24" d="M865.1,429.9c-.1,0-.2,0-.3,0l-14.3-1.6c-1.6-.2-2.8-1.6-2.6-3.2l11.5-106c.2-1.6,1.6-2.8,3.2-2.6l14.3,1.6c1.6.2,2.8,1.6,2.6,3.2l-11.5,106c-.2,1.5-1.4,2.6-2.9,2.6ZM854,422.8l8.5.9,10.9-100.1-8.5-.9-10.9,100.1Z"/>
      <rect class="st13" x="863.5" y="318.4" width="10.8" height="14.4" transform="translate(451.3 1154.2) rotate(-83.8)"/>
      <path class="st24" d="M875.5,334.7c-.1,0-.2,0-.3,0l-14.3-1.6c-1.6-.2-2.8-1.6-2.6-3.2l1.2-10.8c.2-1.6,1.6-2.8,3.2-2.6l14.3,1.6c1.6.2,2.8,1.6,2.6,3.2l-1.2,10.8c-.2,1.5-1.4,2.6-2.9,2.6ZM864.4,327.6l8.5.9.5-4.9-8.5-.9-.5,4.9Z"/>
      <polygon class="st22" points="885.3 461.5 827.7 461.5 818.4 373.2 894.7 373.2 885.3 461.5"/>
      <polygon class="st18" points="818.4 373.2 818.5 374.8 876.7 374.8 867.5 461.5 885.3 461.5 894.7 373.2 818.4 373.2"/>
      <path class="st24" d="M885.3,464.4h-57.6c-1.5,0-2.8-1.1-2.9-2.6l-9.4-88.3c-.2-1.6,1-3.1,2.6-3.2.1,0,.2,0,.3,0h76.3c1.6,0,2.9,1.3,2.9,2.9,0,.1,0,.2,0,.3l-9.4,88.3c-.2,1.5-1.4,2.6-2.9,2.6ZM830.4,458.5h52.3l8.7-82.4h-69.8l8.7,82.4Z"/>
    </g>
  </g>
</svg>